<svg width="32" height="32" viewBox="0 0 32 32" fill="none" xmlns="http://www.w3.org/2000/svg" role="img" aria-label="Polymarket">
  <rect width="32" height="32" rx="7" fill="#1652F0"/>
  <path d="M9 11.5C9 10.67 9.67 10 10.5 10H13.2C14.75 10 16 11.25 16 12.8V21.2C16 22.75 14.75 24 13.2 24H10.5C9.67 24 9 23.33 9 22.5V11.5Z" fill="white" fill-opacity="0.95"/>
  <path d="M14 11.5C14 10.67 14.67 10 15.5 10H18.2C19.75 10 21 11.25 21 12.8V21.2C21 22.75 19.75 24 18.2 24H15.5C14.67 24 14 23.33 14 22.5V11.5Z" fill="white" fill-opacity="0.55"/>
</svg>
