<svg width="220" height="32" viewBox="0 0 220 32" fill="none" xmlns="http://www.w3.org/2000/svg" role="img" aria-label="Polymarket Rust SDK">
  <rect x="0" y="2" width="28" height="28" rx="6" fill="#1652F0"/>
  <path d="M8 10.5C8 9.67 8.67 9 9.5 9H12.2C13.75 9 15 10.25 15 11.8V20.2C15 21.75 13.75 23 12.2 23H9.5C8.67 23 8 22.33 8 21.5V10.5Z" fill="white" fill-opacity="0.95"/>
  <path d="M13 10.5C13 9.67 13.67 9 14.5 9H17.2C18.75 9 20 10.25 20 11.8V20.2C20 21.75 18.75 23 17.2 23H14.5C13.67 23 13 22.33 13 21.5V10.5Z" fill="white" fill-opacity="0.55"/>
  <text x="38" y="21" font-family="Inter, ui-sans-serif, system-ui, -apple-system, sans-serif" font-size="15" font-weight="600" fill="#0F172A" letter-spacing="-0.02em">Polymarket Rust SDK</text>
</svg>
